<?xml version="1.0" encoding="utf-8"?>
<!-- Generator: Adobe Illustrator 22.1.0, SVG Export Plug-In . SVG Version: 6.00 Build 0)  -->
<svg version="1.1" id="Layer_1" xmlns="http://www.w3.org/2000/svg" xmlns:xlink="http://www.w3.org/1999/xlink" x="0px" y="0px"
	 viewBox="0 0 650 253.2" style="enable-background:new 0 0 650 253.2;" xml:space="preserve">
<style type="text/css">
	.st0{fill:none;stroke:#CECECE;stroke-width:1.695;stroke-linecap:round;stroke-miterlimit:10;}
	.st1{fill:none;stroke:#CECECE;stroke-width:1.695;stroke-linecap:round;stroke-miterlimit:10;stroke-dasharray:5.085;}
	.st2{fill:#4686C6;}
	.st3{fill:#034A7D;}
	.st4{fill:#5298D1;}
	.st5{fill:#CCD1D9;}
	.st6{fill:#E6E9ED;}
	.st7{fill:#F0AE2B;}
	.st8{fill:#DB961D;}
	.st9{fill:#E2EBF0;}
	.st10{fill:#BFD2DE;}
	.st11{fill:#FFC85C;}
	.st12{fill:#E6E9EE;}
	.st13{fill:#FFD05B;}
	.st14{fill:#FFFFFF;}
	.st15{fill:#F9B54C;}
	.st16{fill:#324A5E;}
	.st17{enable-background:new    ;}
</style>
<line class="st0" x1="286.4" y1="137.9" x2="219.1" y2="137.9"/>
<line class="st0" x1="514.1" y1="137.9" x2="463.1" y2="137.9"/>
<line class="st1" x1="128.8" y1="45" x2="96.3" y2="29.4"/>
<line class="st1" x1="67.3" y1="117.9" x2="41.8" y2="110.1"/>
<line class="st1" x1="41.8" y1="173" x2="67.3" y2="165.2"/>
<line class="st1" x1="206.9" y1="46.4" x2="237" y2="26.6"/>
<path class="st2" d="M52.5,20.6c0,0.4-0.3,0.7-0.7,0.7c-0.4,0-0.7-0.3-0.7-0.7c0-0.4,0.3-0.7,0.7-0.7C52.2,19.9,52.5,20.2,52.5,20.6
	C52.5,20.6,52.5,20.6,52.5,20.6z"/>
<path class="st2" d="M52.5,24.8c0,0.4-0.3,0.7-0.7,0.7c-0.4,0-0.7-0.3-0.7-0.7c0-0.4,0.3-0.7,0.7-0.7C52.2,24.1,52.5,24.4,52.5,24.8
	C52.5,24.8,52.5,24.8,52.5,24.8z"/>
<path class="st2" d="M54.6,22.7c0,0.4-0.3,0.7-0.7,0.7c-0.4,0-0.7-0.3-0.7-0.7c0-0.4,0.3-0.7,0.7-0.7C54.3,22,54.6,22.3,54.6,22.7
	C54.6,22.7,54.6,22.7,54.6,22.7z"/>
<path class="st2" d="M58.9,22.7c0,0.4-0.3,0.7-0.7,0.7c-0.4,0-0.7-0.3-0.7-0.7c0-0.4,0.3-0.7,0.7-0.7C58.6,22,58.9,22.3,58.9,22.7
	C58.9,22.7,58.9,22.7,58.9,22.7z"/>
<path class="st2" d="M56.8,24.8c0,0.4-0.3,0.7-0.7,0.7c-0.4,0-0.7-0.3-0.7-0.7c0-0.4,0.3-0.7,0.7-0.7C56.5,24.1,56.8,24.4,56.8,24.8
	z"/>
<path class="st2" d="M61,24.8c0,0.4-0.3,0.7-0.7,0.7c-0.4,0-0.7-0.3-0.7-0.7c0-0.4,0.3-0.7,0.7-0.7C60.7,24.1,61,24.4,61,24.8
	C61,24.8,61,24.8,61,24.8z"/>
<path class="st2" d="M63.2,22.7c0,0.4-0.3,0.7-0.7,0.7c-0.4,0-0.7-0.3-0.7-0.7c0-0.4,0.3-0.7,0.7-0.7C62.9,22,63.2,22.3,63.2,22.7z"
	/>
<path class="st2" d="M67.4,22.7c0,0.4-0.3,0.7-0.7,0.7c-0.4,0-0.7-0.3-0.7-0.7c0-0.4,0.3-0.7,0.7-0.7C67.1,22,67.4,22.3,67.4,22.7
	C67.4,22.7,67.4,22.7,67.4,22.7z"/>
<path class="st2" d="M65.3,24.8c0,0.4-0.3,0.7-0.7,0.7c-0.4,0-0.7-0.3-0.7-0.7c0-0.4,0.3-0.7,0.7-0.7C65,24.1,65.3,24.4,65.3,24.8
	C65.3,24.8,65.3,24.8,65.3,24.8z"/>
<path class="st2" d="M69.5,24.8c0,0.4-0.3,0.7-0.7,0.7c-0.4,0-0.7-0.3-0.7-0.7c0-0.4,0.3-0.7,0.7-0.7C69.2,24.1,69.5,24.4,69.5,24.8
	C69.5,24.8,69.5,24.8,69.5,24.8z"/>
<path class="st2" d="M71.7,22.7c0,0.4-0.3,0.7-0.7,0.7c-0.4,0-0.7-0.3-0.7-0.7c0-0.4,0.3-0.7,0.7-0.7C71.4,22,71.7,22.3,71.7,22.7
	C71.7,22.7,71.7,22.7,71.7,22.7z"/>
<path class="st2" d="M75.9,22.7c0,0.4-0.3,0.7-0.7,0.7c-0.4,0-0.7-0.3-0.7-0.7c0-0.4,0.3-0.7,0.7-0.7C75.6,22,75.9,22.3,75.9,22.7
	C75.9,22.7,75.9,22.7,75.9,22.7z"/>
<path class="st2" d="M73.8,24.8c0,0.4-0.3,0.7-0.7,0.7c-0.4,0-0.7-0.3-0.7-0.7c0-0.4,0.3-0.7,0.7-0.7C73.5,24.1,73.8,24.4,73.8,24.8
	C73.8,24.8,73.8,24.8,73.8,24.8z"/>
<path class="st2" d="M78.1,24.8c0,0.4-0.3,0.7-0.7,0.7c-0.4,0-0.7-0.3-0.7-0.7c0-0.4,0.3-0.7,0.7-0.7C77.8,24.1,78.1,24.4,78.1,24.8
	z"/>
<path class="st2" d="M80.2,22.7c0,0.4-0.3,0.7-0.7,0.7c-0.4,0-0.7-0.3-0.7-0.7c0-0.4,0.3-0.7,0.7-0.7C79.9,22,80.2,22.3,80.2,22.7
	C80.2,22.7,80.2,22.7,80.2,22.7z"/>
<path class="st2" d="M82.3,20.6c0,0.4-0.3,0.7-0.7,0.7c-0.4,0-0.7-0.3-0.7-0.7c0-0.4,0.3-0.7,0.7-0.7C82,19.9,82.3,20.2,82.3,20.6
	C82.3,20.6,82.3,20.6,82.3,20.6z"/>
<path class="st2" d="M58.9,27c0,0.4-0.3,0.7-0.7,0.7c-0.4,0-0.7-0.3-0.7-0.7c0-0.4,0.3-0.7,0.7-0.7C58.6,26.2,58.9,26.6,58.9,27z"/>
<path class="st2" d="M63.2,27c0,0.4-0.3,0.7-0.7,0.7c-0.4,0-0.7-0.3-0.7-0.7c0-0.4,0.3-0.7,0.7-0.7C62.8,26.2,63.2,26.6,63.2,27z"/>
<path class="st2" d="M67.4,27c0,0.4-0.3,0.7-0.7,0.7c-0.4,0-0.7-0.3-0.7-0.7c0-0.4,0.3-0.7,0.7-0.7C67.1,26.2,67.4,26.6,67.4,27z"/>
<path class="st2" d="M71.7,27c0,0.4-0.3,0.7-0.7,0.7c-0.4,0-0.7-0.3-0.7-0.7c0-0.4,0.3-0.7,0.7-0.7C71.4,26.2,71.7,26.6,71.7,27z"/>
<path class="st2" d="M75.9,27c0,0.4-0.3,0.7-0.7,0.7c-0.4,0-0.7-0.3-0.7-0.7c0-0.4,0.3-0.7,0.7-0.7C75.6,26.2,75.9,26.6,75.9,27z"/>
<path class="st2" d="M83.7,6.1L83.7,6.1C82.8,2.5,75.3,0,66,0S49.2,2.6,48.3,6l0,0v26.6c0,0.1,0,0.2,0.1,0.3
	c0.8,3.5,8.3,6.1,17.7,6.1c9.3,0,16.8-2.6,17.7-6c0.1-0.1,0.1-0.2,0.1-0.3V6.4C83.7,6.3,83.7,6.2,83.7,6.1L83.7,6.1z M79.9,26.4
	c-0.1-0.1-0.3-0.2-0.5-0.2c-0.4,0-0.7,0.3-0.7,0.7c0,0,0,0,0,0l0,0c-1.7,0.7-3.6,1.2-5.4,1.5c-0.1-0.1-0.2-0.1-0.3-0.1
	c-0.2,0-0.4,0.1-0.5,0.2c-1,0.2-2.1,0.3-3.1,0.3c-0.1-0.3-0.4-0.6-0.7-0.6c-0.4,0-0.7,0.3-0.7,0.7c0,0,0,0,0,0
	c-0.7,0-1.4,0.1-2.1,0.1h-0.7c0-0.4-0.3-0.7-0.7-0.7c-0.4,0-0.7,0.3-0.7,0.7c-1,0-1.9-0.1-2.9-0.2c-0.1-0.3-0.4-0.4-0.7-0.4
	c-0.2,0-0.4,0.1-0.6,0.3c-1.8-0.2-3.6-0.7-5.3-1.2c0.1-0.1,0.2-0.3,0.2-0.5c0-0.4-0.3-0.7-0.7-0.7c-0.4,0-0.7,0.3-0.7,0.7l0,0
	c-2.3-1-3.6-2.1-3.6-3.2v-0.3c0.4,0,0.7-0.3,0.7-0.7s-0.3-0.7-0.7-0.7c0,0,0,0,0,0v-2.8c0.4,0,0.7-0.3,0.7-0.7c0,0,0,0,0,0
	c1.5,1,3.2,1.8,5,2.2c0.1,0.3,0.4,0.6,0.7,0.6c0.2,0,0.4-0.1,0.5-0.3c3.1,0.7,6.2,1,9.4,1c3.6,0,7.2-0.4,10.7-1.3
	c0.1,0.3,0.4,0.6,0.7,0.6c0.4,0,0.7-0.3,0.7-0.7c0,0,0,0,0,0c0-0.1,0-0.2-0.1-0.3c1.6-0.5,3-1.2,4.3-2.3v5.8c0,0.2-0.1,0.4-0.2,0.6
	c-0.1-0.2-0.4-0.3-0.6-0.3c-0.4,0-0.7,0.3-0.7,0.7c0,0,0,0,0,0c0,0.3,0.2,0.5,0.4,0.6C81,25.8,80.5,26.1,79.9,26.4L79.9,26.4z
	 M82.3,15.4L82.3,15.4c-0.4,2.5-7.1,5.2-16.3,5.2c-9.3,0-15.9-2.6-16.3-5.1V9.4c2.4,2.2,8,4.1,16.3,4.1c8.4,0,13.9-1.8,16.3-4.1
	V15.4z M66,1.4c9.3,0,15.9,2.6,16.3,5.1l0,0v0.2c0,2.5-6.7,5.3-16.3,5.3S49.7,9.2,49.7,6.7V6.5l0,0C50.1,4,56.7,1.4,66,1.4z
	 M82.3,32.5c-0.4,2.5-7.1,5.1-16.3,5.1c-9.3,0-15.9-2.6-16.3-5.1v-6.1c2.4,2.2,8,4.1,16.3,4.1c8.4,0,13.9-1.8,16.3-4.1V32.5z"/>
<path class="st2" d="M250.9,24.5c0,0.4-0.3,0.7-0.7,0.7c-0.4,0-0.7-0.3-0.7-0.7c0-0.4,0.3-0.7,0.7-0.7
	C250.6,23.8,250.9,24.1,250.9,24.5C250.9,24.5,250.9,24.5,250.9,24.5z"/>
<path class="st2" d="M250.9,28.8c0,0.4-0.3,0.7-0.7,0.7c-0.4,0-0.7-0.3-0.7-0.7c0-0.4,0.3-0.7,0.7-0.7
	C250.6,28.1,250.9,28.4,250.9,28.8C250.9,28.8,250.9,28.8,250.9,28.8z"/>
<path class="st2" d="M253.1,26.7c0,0.4-0.3,0.7-0.7,0.7c-0.4,0-0.7-0.3-0.7-0.7c0-0.4,0.3-0.7,0.7-0.7
	C252.8,26,253.1,26.3,253.1,26.7C253.1,26.7,253.1,26.7,253.1,26.7z"/>
<path class="st2" d="M257.3,26.7c0,0.4-0.3,0.7-0.7,0.7c-0.4,0-0.7-0.3-0.7-0.7c0-0.4,0.3-0.7,0.7-0.7C257,26,257.3,26.3,257.3,26.7
	C257.3,26.7,257.3,26.7,257.3,26.7z"/>
<path class="st2" d="M255.2,28.8c0,0.4-0.3,0.7-0.7,0.7c-0.4,0-0.7-0.3-0.7-0.7c0-0.4,0.3-0.7,0.7-0.7
	C254.9,28.1,255.2,28.4,255.2,28.8C255.2,28.8,255.2,28.8,255.2,28.8z"/>
<path class="st2" d="M259.5,28.8c0,0.4-0.3,0.7-0.7,0.7c-0.4,0-0.7-0.3-0.7-0.7c0-0.4,0.3-0.7,0.7-0.7
	C259.2,28.1,259.5,28.4,259.5,28.8C259.5,28.8,259.5,28.8,259.5,28.8z"/>
<path class="st2" d="M261.6,26.7c0,0.4-0.3,0.7-0.7,0.7c-0.4,0-0.7-0.3-0.7-0.7c0-0.4,0.3-0.7,0.7-0.7
	C261.3,26,261.6,26.3,261.6,26.7C261.6,26.7,261.6,26.7,261.6,26.7z"/>
<path class="st2" d="M265.9,26.7c0,0.4-0.3,0.7-0.7,0.7c-0.4,0-0.7-0.3-0.7-0.7c0-0.4,0.3-0.7,0.7-0.7
	C265.6,26,265.9,26.3,265.9,26.7z"/>
<path class="st2" d="M263.7,28.8c0,0.4-0.3,0.7-0.7,0.7c-0.4,0-0.7-0.3-0.7-0.7c0-0.4,0.3-0.7,0.7-0.7
	C263.4,28.1,263.7,28.4,263.7,28.8C263.7,28.8,263.7,28.8,263.7,28.8z"/>
<path class="st2" d="M268,28.8c0,0.4-0.3,0.7-0.7,0.7c-0.4,0-0.7-0.3-0.7-0.7c0-0.4,0.3-0.7,0.7-0.7C267.7,28.1,268,28.4,268,28.8
	C268,28.8,268,28.8,268,28.8z"/>
<path class="st2" d="M270.1,26.7c0,0.4-0.3,0.7-0.7,0.7c-0.4,0-0.7-0.3-0.7-0.7c0-0.4,0.3-0.7,0.7-0.7
	C269.8,26,270.1,26.3,270.1,26.7C270.1,26.7,270.1,26.7,270.1,26.7z"/>
<path class="st2" d="M274.4,26.7c0,0.4-0.3,0.7-0.7,0.7c-0.4,0-0.7-0.3-0.7-0.7c0-0.4,0.3-0.7,0.7-0.7
	C274.1,26,274.4,26.3,274.4,26.7C274.4,26.7,274.4,26.7,274.4,26.7z"/>
<path class="st2" d="M272.3,28.8c0,0.4-0.3,0.7-0.7,0.7c-0.4,0-0.7-0.3-0.7-0.7c0-0.4,0.3-0.7,0.7-0.7
	C272,28.1,272.3,28.4,272.3,28.8z"/>
<path class="st2" d="M276.5,28.8c0,0.4-0.3,0.7-0.7,0.7c-0.4,0-0.7-0.3-0.7-0.7c0-0.4,0.3-0.7,0.7-0.7
	C276.2,28.1,276.5,28.4,276.5,28.8C276.5,28.8,276.5,28.8,276.5,28.8z"/>
<path class="st2" d="M278.6,26.7c0,0.4-0.3,0.7-0.7,0.7c-0.4,0-0.7-0.3-0.7-0.7c0-0.4,0.3-0.7,0.7-0.7
	C278.3,26,278.6,26.3,278.6,26.7C278.6,26.7,278.6,26.7,278.6,26.7z"/>
<path class="st2" d="M280.8,24.5c0,0.4-0.3,0.7-0.7,0.7c-0.4,0-0.7-0.3-0.7-0.7c0-0.4,0.3-0.7,0.7-0.7
	C280.5,23.8,280.8,24.1,280.8,24.5C280.8,24.5,280.8,24.5,280.8,24.5z"/>
<path class="st2" d="M257.3,30.9c0,0.4-0.3,0.7-0.7,0.7c-0.4,0-0.7-0.3-0.7-0.7c0-0.4,0.3-0.7,0.7-0.7
	C257,30.2,257.3,30.5,257.3,30.9C257.3,30.9,257.3,30.9,257.3,30.9z"/>
<path class="st2" d="M261.6,30.9c0,0.4-0.3,0.7-0.7,0.7c-0.4,0-0.7-0.3-0.7-0.7c0-0.4,0.3-0.7,0.7-0.7
	C261.3,30.2,261.6,30.5,261.6,30.9C261.6,30.9,261.6,30.9,261.6,30.9z"/>
<path class="st2" d="M265.9,30.9c0,0.4-0.3,0.7-0.7,0.7c-0.4,0-0.7-0.3-0.7-0.7c0-0.4,0.3-0.7,0.7-0.7
	C265.6,30.2,265.9,30.5,265.9,30.9z"/>
<path class="st2" d="M270.1,30.9c0,0.4-0.3,0.7-0.7,0.7c-0.4,0-0.7-0.3-0.7-0.7c0-0.4,0.3-0.7,0.7-0.7
	C269.8,30.2,270.1,30.5,270.1,30.9C270.1,30.9,270.1,30.9,270.1,30.9z"/>
<path class="st2" d="M274.4,30.9c0,0.4-0.3,0.7-0.7,0.7c-0.4,0-0.7-0.3-0.7-0.7c0-0.4,0.3-0.7,0.7-0.7
	C274.1,30.2,274.4,30.5,274.4,30.9C274.4,30.9,274.4,30.9,274.4,30.9z"/>
<path class="st2" d="M282.1,10.1L282.1,10.1c-0.9-3.6-8.4-6.1-17.7-6.1s-16.8,2.6-17.7,6l0,0v26.6c0,0.1,0,0.2,0.1,0.3
	c0.8,3.5,8.3,6.1,17.7,6.1c9.3,0,16.8-2.6,17.7-6c0.1-0.1,0.1-0.2,0.1-0.3V10.4C282.3,10.3,282.2,10.2,282.1,10.1L282.1,10.1z
	 M278.4,30.4c-0.1-0.1-0.3-0.2-0.5-0.2c-0.4,0-0.7,0.3-0.7,0.7c0,0,0,0,0,0l0,0c-1.7,0.7-3.6,1.2-5.4,1.5c-0.1-0.1-0.2-0.1-0.3-0.1
	c-0.2,0-0.4,0.1-0.5,0.2c-1,0.2-2.1,0.3-3.1,0.3c-0.1-0.3-0.4-0.6-0.7-0.6c-0.4,0-0.7,0.3-0.7,0.7c0,0,0,0,0,0
	c-0.7,0-1.4,0.1-2.1,0.1h-0.7c0-0.4-0.3-0.7-0.7-0.7s-0.7,0.3-0.7,0.7c-1,0-1.9-0.1-2.9-0.2c-0.1-0.3-0.4-0.4-0.7-0.4
	c-0.2,0-0.4,0.1-0.6,0.3c-1.8-0.2-3.6-0.7-5.3-1.2c0.1-0.1,0.2-0.3,0.2-0.5c0-0.4-0.3-0.7-0.7-0.7s-0.7,0.3-0.7,0.7l0,0
	c-2.3-1-3.6-2.1-3.6-3.2v-0.3c0.4,0,0.7-0.3,0.7-0.7c0-0.4-0.3-0.7-0.7-0.7c0,0,0,0,0,0v-2.8c0.4,0,0.7-0.3,0.7-0.7c0,0,0,0,0,0
	c1.5,1,3.2,1.8,5,2.2c0.1,0.3,0.4,0.6,0.7,0.6c0.2,0,0.4-0.1,0.5-0.3c3.1,0.7,6.2,1,9.4,1c3.6,0,7.2-0.4,10.7-1.3
	c0.1,0.3,0.4,0.6,0.7,0.6c0.4,0,0.7-0.3,0.7-0.7c0,0,0,0,0,0c0-0.1,0-0.2-0.1-0.3c1.6-0.5,3-1.2,4.3-2.3v5.8c0,0.2-0.1,0.4-0.2,0.6
	c-0.1-0.2-0.4-0.3-0.6-0.3c-0.4,0-0.7,0.3-0.7,0.7c0,0,0,0,0,0c0,0.3,0.2,0.5,0.4,0.6C279.4,29.8,278.9,30.1,278.4,30.4L278.4,30.4z
	 M280.8,19.4L280.8,19.4c-0.4,2.5-7.1,5.2-16.3,5.2c-9.3,0-15.9-2.6-16.3-5.1v-6.1c2.4,2.2,8,4.1,16.3,4.1c8.4,0,13.9-1.8,16.3-4.1
	V19.4z M264.4,5.4c9.3,0,15.9,2.6,16.3,5.1l0,0v0.2c0,2.5-6.7,5.3-16.3,5.3s-16.3-2.8-16.3-5.3v-0.2l0,0
	C248.5,8,255.2,5.4,264.4,5.4z M280.8,36.5c-0.4,2.5-7.1,5.1-16.3,5.1c-9.3,0-15.9-2.6-16.3-5.1v-6.1c2.4,2.2,8,4.1,16.3,4.1
	c8.4,0,13.9-1.8,16.3-4.1V36.5z"/>
<path d="M24.2,13.9c2.1,0,3,1.1,3,3.1v1.1c0,1.5-0.5,2.4-1.7,2.7c1.2,0.4,1.9,1.6,1.7,2.8v2.1c-0.1,0.6,0,1.1,0.3,1.6H26
	c-0.2-0.5-0.3-1.1-0.2-1.6v-2.1c0-1.5-0.7-2-1.9-2h-1.1v5.7h-1.5V13.9H24.2L24.2,13.9z M23.8,20.2c1.2,0,1.9-0.4,1.9-1.8v-1.3
	c0-1.2-0.4-1.8-1.5-1.8h-1.5v4.9L23.8,20.2L23.8,20.2z"/>
<path d="M31,13.9v13.4h-1.5V13.9H31z"/>
<path d="M39.4,17.1v1.1H38V17c0-1.2-0.5-1.9-1.6-1.9s-1.6,0.7-1.6,1.9v7.1c0,1.2,0.5,1.9,1.6,1.9s1.6-0.7,1.6-1.9v-2.7h-1.4v-1.3
	h2.8V24c0,2-1,3.4-3,3.4s-3-1.3-3-3.4v-6.9c0-2,1-3.4,3-3.4S39.4,15.1,39.4,17.1z"/>
<line class="st1" x1="132.7" y1="212.4" x2="96.6" y2="212.4"/>
<path class="st2" d="M59.6,213.5c0,0.4-0.3,0.7-0.7,0.7s-0.7-0.3-0.7-0.7s0.3-0.7,0.7-0.7C59.3,212.8,59.6,213.1,59.6,213.5
	C59.6,213.5,59.6,213.5,59.6,213.5z"/>
<path class="st2" d="M59.6,217.8c0,0.4-0.3,0.7-0.7,0.7s-0.7-0.3-0.7-0.7s0.3-0.7,0.7-0.7C59.3,217.1,59.6,217.4,59.6,217.8
	C59.6,217.8,59.6,217.8,59.6,217.8z"/>
<path class="st2" d="M61.7,215.6c0,0.4-0.3,0.7-0.7,0.7s-0.7-0.3-0.7-0.7s0.3-0.7,0.7-0.7C61.4,214.9,61.7,215.2,61.7,215.6
	C61.7,215.6,61.7,215.6,61.7,215.6z"/>
<path class="st2" d="M66,215.6c0,0.4-0.3,0.7-0.7,0.7s-0.7-0.3-0.7-0.7s0.3-0.7,0.7-0.7C65.7,214.9,66,215.2,66,215.6
	C66,215.6,66,215.6,66,215.6z"/>
<path class="st2" d="M63.8,217.8c0,0.4-0.3,0.7-0.7,0.7s-0.7-0.3-0.7-0.7s0.3-0.7,0.7-0.7C63.5,217,63.8,217.4,63.8,217.8z"/>
<path class="st2" d="M68.1,217.8c0,0.4-0.3,0.7-0.7,0.7s-0.7-0.3-0.7-0.7s0.3-0.7,0.7-0.7C67.8,217,68.1,217.4,68.1,217.8z"/>
<path class="st2" d="M70.2,215.6c0,0.4-0.3,0.7-0.7,0.7s-0.7-0.3-0.7-0.7s0.3-0.7,0.7-0.7C69.9,214.9,70.2,215.2,70.2,215.6
	C70.2,215.6,70.2,215.6,70.2,215.6z"/>
<path class="st2" d="M74.5,215.6c0,0.4-0.3,0.7-0.7,0.7s-0.7-0.3-0.7-0.7s0.3-0.7,0.7-0.7C74.2,214.9,74.5,215.2,74.5,215.6
	C74.5,215.6,74.5,215.6,74.5,215.6z"/>
<path class="st2" d="M72.4,217.8c0,0.4-0.3,0.7-0.7,0.7s-0.7-0.3-0.7-0.7s0.3-0.7,0.7-0.7C72.1,217,72.4,217.4,72.4,217.8z"/>
<path class="st2" d="M76.6,217.8c0,0.4-0.3,0.7-0.7,0.7s-0.7-0.3-0.7-0.7s0.3-0.7,0.7-0.7C76.3,217,76.6,217.4,76.6,217.8z"/>
<path class="st2" d="M78.8,215.6c0,0.4-0.3,0.7-0.7,0.7s-0.7-0.3-0.7-0.7s0.3-0.7,0.7-0.7C78.5,214.9,78.8,215.2,78.8,215.6z"/>
<path class="st2" d="M83,215.6c0,0.4-0.3,0.7-0.7,0.7s-0.7-0.3-0.7-0.7c0-0.4,0.3-0.7,0.7-0.7C82.7,214.9,83,215.2,83,215.6
	C83,215.6,83,215.6,83,215.6z"/>
<path class="st2" d="M80.9,217.8c0,0.4-0.3,0.7-0.7,0.7s-0.7-0.3-0.7-0.7s0.3-0.7,0.7-0.7C80.6,217,80.9,217.4,80.9,217.8z"/>
<path class="st2" d="M85.2,217.8c0,0.4-0.3,0.7-0.7,0.7s-0.7-0.3-0.7-0.7c0-0.4,0.3-0.7,0.7-0.7C84.8,217,85.2,217.4,85.2,217.8z"/>
<path class="st2" d="M87.3,215.6c0,0.4-0.3,0.7-0.7,0.7s-0.7-0.3-0.7-0.7c0-0.4,0.3-0.7,0.7-0.7C87,214.9,87.3,215.2,87.3,215.6
	C87.3,215.6,87.3,215.6,87.3,215.6z"/>
<path class="st2" d="M89.4,213.5c0,0.4-0.3,0.7-0.7,0.7s-0.7-0.3-0.7-0.7c0-0.4,0.3-0.7,0.7-0.7C89.1,212.8,89.4,213.1,89.4,213.5
	C89.4,213.5,89.4,213.5,89.4,213.5z"/>
<path class="st2" d="M66,219.9c0,0.4-0.3,0.7-0.7,0.7s-0.7-0.3-0.7-0.7s0.3-0.7,0.7-0.7C65.7,219.2,66,219.5,66,219.9
	C66,219.9,66,219.9,66,219.9z"/>
<path class="st2" d="M70.2,219.9c0,0.4-0.3,0.7-0.7,0.7s-0.7-0.3-0.7-0.7s0.3-0.7,0.7-0.7C69.9,219.2,70.2,219.5,70.2,219.9
	C70.2,219.9,70.2,219.9,70.2,219.9z"/>
<path class="st2" d="M74.5,219.9c0,0.4-0.3,0.7-0.7,0.7s-0.7-0.3-0.7-0.7s0.3-0.7,0.7-0.7C74.2,219.2,74.5,219.5,74.5,219.9
	C74.5,219.9,74.5,219.9,74.5,219.9z"/>
<path class="st2" d="M78.8,219.9c0,0.4-0.3,0.7-0.7,0.7s-0.7-0.3-0.7-0.7s0.3-0.7,0.7-0.7C78.5,219.2,78.8,219.5,78.8,219.9z"/>
<path class="st2" d="M83,219.9c0,0.4-0.3,0.7-0.7,0.7s-0.7-0.3-0.7-0.7c0-0.4,0.3-0.7,0.7-0.7C82.7,219.2,83,219.5,83,219.9
	C83,219.9,83,219.9,83,219.9z"/>
<path class="st2" d="M90.8,199L90.8,199c-0.9-3.6-8.4-6.1-17.7-6.1s-16.8,2.6-17.7,6l0,0v26.6c0,0.1,0,0.2,0.1,0.3
	c0.8,3.5,8.3,6.1,17.7,6.1c9.3,0,16.8-2.6,17.7-6c0.1-0.1,0.1-0.2,0.1-0.3v-26.3C90.8,199.2,90.8,199.1,90.8,199L90.8,199z
	 M87,219.3c-0.1-0.1-0.3-0.2-0.5-0.2c-0.4,0-0.7,0.3-0.7,0.7c0,0,0,0,0,0l0,0c-1.7,0.7-3.6,1.2-5.4,1.5c-0.1-0.1-0.2-0.1-0.3-0.1
	c-0.2,0-0.4,0.1-0.5,0.2c-1,0.2-2.1,0.3-3.1,0.3c-0.1-0.3-0.4-0.6-0.7-0.6c-0.4,0-0.7,0.3-0.7,0.7c0,0,0,0,0,0
	c-0.7,0-1.4,0.1-2.1,0.1h-0.7c0-0.4-0.3-0.7-0.7-0.7c-0.4,0-0.7,0.3-0.7,0.7c-1,0-1.9-0.1-2.9-0.2c-0.1-0.3-0.4-0.4-0.7-0.4
	c-0.2,0-0.4,0.1-0.6,0.3c-1.8-0.2-3.6-0.7-5.3-1.2c0.1-0.1,0.2-0.3,0.2-0.5c0-0.4-0.3-0.7-0.7-0.7c-0.4,0-0.7,0.3-0.7,0.7l0,0
	c-2.3-1-3.6-2.1-3.6-3.2v-0.3c0.4,0,0.7-0.3,0.7-0.7c0-0.4-0.3-0.7-0.7-0.7v-2.8c0.4,0,0.7-0.3,0.7-0.7c0,0,0,0,0,0
	c1.5,1,3.2,1.8,5,2.2c0.1,0.3,0.4,0.6,0.7,0.6c0.2,0,0.4-0.1,0.5-0.3c3.1,0.7,6.2,1,9.4,1c3.6,0,7.2-0.4,10.7-1.3
	c0.1,0.3,0.4,0.6,0.7,0.6c0.4,0,0.7-0.3,0.7-0.7c0,0,0,0,0,0c0-0.1,0-0.2-0.1-0.3c1.6-0.5,3-1.2,4.3-2.3v5.8c0,0.2-0.1,0.4-0.2,0.6
	c-0.1-0.2-0.4-0.3-0.6-0.3c-0.4,0-0.7,0.3-0.7,0.7c0,0,0,0,0,0c0,0.3,0.2,0.5,0.4,0.6C88,218.7,87.6,219,87,219.3L87,219.3z
	 M89.4,208.3L89.4,208.3c-0.4,2.5-7.1,5.2-16.3,5.2c-9.3,0-15.9-2.6-16.3-5.1v-6.1c2.4,2.2,8,4.1,16.3,4.1c8.4,0,13.9-1.8,16.3-4.1
	V208.3z M73.1,194.3c9.3,0,15.9,2.6,16.3,5.1l0,0v0.2c0,2.5-6.7,5.3-16.3,5.3s-16.3-2.8-16.3-5.3v-0.2l0,0
	C57.2,196.9,63.8,194.3,73.1,194.3z M89.4,225.4c-0.4,2.5-7.1,5.1-16.3,5.1c-9.3,0-15.9-2.6-16.3-5.1v-6.1c2.4,2.2,8,4.1,16.3,4.1
	c8.4,0,13.9-1.8,16.3-4.1V225.4z"/>
<path d="M67,239.7c2.1,0,3,1.1,3,3.1v1.1c0,1.5-0.5,2.4-1.7,2.7c1.2,0.4,1.9,1.6,1.7,2.8v2.1c-0.1,0.6,0,1.1,0.3,1.6h-1.5
	c-0.2-0.5-0.3-1.1-0.2-1.6v-2.1c0-1.5-0.7-2-1.9-2h-1.1v5.7h-1.5v-13.4H67L67,239.7z M66.6,246c1.2,0,1.9-0.4,1.9-1.8v-1.4
	c0-1.2-0.4-1.8-1.5-1.8h-1.5v4.9L66.6,246L66.6,246z"/>
<path d="M73.8,239.7v13.4h-1.5v-13.4H73.8z"/>
<path d="M82.2,242.9v1.1h-1.4v-1.2c0-1.2-0.5-1.9-1.6-1.9s-1.6,0.7-1.6,1.9v7.1c0,1.2,0.5,1.9,1.6,1.9s1.6-0.7,1.6-1.9v-2.7h-1.4
	v-1.3h2.8v3.9c0,2-1,3.4-3,3.4s-3-1.3-3-3.4v-6.9c0-2,1-3.4,3-3.4S82.2,240.9,82.2,242.9z"/>
<path d="M292.5,13.9c2.1,0,3,1.1,3,3.1v1.1c0,1.5-0.5,2.4-1.7,2.7c1.2,0.4,1.9,1.6,1.7,2.8v2.1c-0.1,0.6,0,1.1,0.3,1.6h-1.5
	c-0.2-0.5-0.3-1.1-0.2-1.6v-2.1c0-1.5-0.7-2-1.9-2h-1.1v5.7h-1.5V13.9H292.5z M292.1,20.2c1.2,0,1.9-0.4,1.9-1.8v-1.3
	c0-1.2-0.4-1.8-1.5-1.8H291v4.9L292.1,20.2L292.1,20.2z"/>
<path d="M299.3,13.9v13.4h-1.5V13.9H299.3z"/>
<path d="M307.7,17.1v1.1h-1.4V17c0-1.2-0.5-1.9-1.6-1.9s-1.6,0.7-1.6,1.9v7.1c0,1.2,0.5,1.9,1.6,1.9s1.6-0.7,1.6-1.9v-2.7h-1.4v-1.3
	h2.8V24c0,2-1,3.4-3,3.4s-3-1.3-3-3.4v-6.9c0-2,1-3.4,3-3.4S307.7,15.1,307.7,17.1z"/>
<path d="M347.3,215.3h-0.8l-2.6-11v11h-0.7v-12.4h1.2l2.6,11l2.6-11h1.2v12.4h-0.9v-11L347.3,215.3z"/>
<path d="M352.9,202.9v12.4h-0.8v-12.4H352.9z"/>
<path d="M355.1,215.4h-0.7V203h1.1l3.7,10.5V203h0.7v12.4H359l-3.9-11.1L355.1,215.4L355.1,215.4z"/>
<path d="M362.1,202.9v12.4h-0.8v-12.4H362.1z"/>
<path d="M364.3,215.4h-0.7V203h1.1l3.7,10.5V203h0.7v12.4h-0.9l-3.9-11.1L364.3,215.4L364.3,215.4z"/>
<path d="M375.7,206v0.9h-0.8v-1c0-1.3-0.5-2.3-1.9-2.3s-1.9,1-1.9,2.3v6.5c0,1.3,0.5,2.3,1.9,2.3s1.9-1,1.9-2.3v-2.7h-1.6V209h2.4
	v3.4c0,1.8-0.8,3.1-2.7,3.1s-2.7-1.3-2.7-3.1v-6.3c0-1.8,0.8-3.1,2.7-3.1C375,202.8,375.7,204.2,375.7,206z"/>
<path d="M382.4,202.9c1.9,0,2.7,1.2,2.7,3v1.3c0,2-0.9,2.9-2.9,2.9h-1.5v5.1h-0.8v-12.4h2.5V202.9z M382.2,209.5
	c1.4,0,2.1-0.6,2.1-2.1v-1.5c0-1.3-0.5-2.2-1.8-2.2h-1.8v5.8L382.2,209.5L382.2,209.5z"/>
<path d="M386.3,206c0-1.8,0.8-3.1,2.7-3.1s2.7,1.3,2.7,3.1v6.3c0,1.8-0.8,3.1-2.7,3.1s-2.7-1.3-2.7-3.1V206z M387.1,212.4
	c0,1.3,0.5,2.3,1.9,2.3s1.9-1,1.9-2.3v-6.5c0-1.3-0.5-2.3-1.9-2.3s-1.9,1-1.9,2.3V212.4z"/>
<path d="M393,206c0-1.8,0.8-3.1,2.7-3.1s2.7,1.3,2.7,3.1v6.3c0,1.8-0.8,3.1-2.7,3.1s-2.7-1.3-2.7-3.1V206z M393.9,212.4
	c0,1.3,0.5,2.3,1.9,2.3s1.9-1,1.9-2.3v-6.5c0-1.3-0.5-2.3-1.9-2.3s-1.9,1-1.9,2.3V212.4z"/>
<path d="M399.8,215.4V203h0.8v11.7h3.9v0.7L399.8,215.4L399.8,215.4z"/>
<path d="M563.4,202.9c1.9,0,2.5,0.9,2.5,2.6v0.7c0,1.3-0.4,2.2-1.6,2.4c1.2,0.3,2.1,1.4,1.9,2.7v1.1c0,1.8-0.8,2.9-2.7,2.9h-2.7
	v-12.4H563.4z M563,208.4c1.5,0,2.1-0.4,2.1-2v-0.8c0-1.3-0.4-2-1.7-2h-1.8v4.7L563,208.4L563,208.4z M563.5,214.6
	c1.4,0,1.9-0.8,1.9-2.1v-1.1c0-1.6-0.7-2.2-2.2-2.2h-1.5v5.4L563.5,214.6L563.5,214.6z"/>
<path d="M567.5,215.4V203h0.8v11.7h3.9v0.7L567.5,215.4L567.5,215.4z"/>
<path d="M573.4,206c0-1.8,0.8-3.1,2.7-3.1s2.7,1.3,2.7,3.1v6.3c0,1.8-0.8,3.1-2.7,3.1s-2.7-1.3-2.7-3.1V206z M574.2,212.4
	c0,1.3,0.5,2.3,1.9,2.3s1.9-1,1.9-2.3v-6.5c0-1.3-0.5-2.3-1.9-2.3s-1.9,1-1.9,2.3V212.4z"/>
<path d="M585.5,206v1h-0.8v-1.1c0-1.3-0.5-2.3-1.9-2.3s-1.9,1-1.9,2.3v6.5c0,1.3,0.5,2.3,1.9,2.3s1.9-1,1.9-2.3v-1.5h0.8v1.4
	c0,1.8-0.8,3.1-2.7,3.1s-2.7-1.3-2.7-3.1V206c0-1.8,0.8-3.1,2.7-3.1C584.7,202.8,585.5,204.2,585.5,206z"/>
<path d="M588.5,209.5l-0.9,1.3v4.5h-0.8v-12.4h0.8v6.6l4-6.6h0.9l-3.5,5.8l3.8,6.6h-0.9L588.5,209.5z"/>
<path d="M599.2,206v1h-0.8v-1.1c0-1.3-0.5-2.3-1.9-2.3s-1.9,1-1.9,2.3v6.5c0,1.3,0.5,2.3,1.9,2.3s1.9-1,1.9-2.3v-1.5h0.8v1.4
	c0,1.8-0.8,3.1-2.7,3.1s-2.7-1.3-2.7-3.1V206c0-1.8,0.8-3.1,2.7-3.1S599.2,204.2,599.2,206z"/>
<path d="M601.3,209.5v5.8h-0.8v-12.4h0.8v5.8h3.9v-5.8h0.8v12.4h-0.8v-5.8H601.3z"/>
<path d="M608.6,212.6l-0.6,2.7h-0.7l2.7-12.4h1.2l2.8,12.4h-0.8l-0.6-2.7H608.6z M608.7,211.9h3.6l-1.8-8L608.7,211.9z"/>
<path d="M616,202.9v12.4h-0.8v-12.4H616z"/>
<path d="M618.1,215.4h-0.7V203h1.1l3.7,10.5V203h0.7v12.4H622l-3.9-11.1L618.1,215.4L618.1,215.4z"/>
<path class="st3" d="M650,143.7v32.7l-7.3,7.3V151L650,143.7z"/>
<path class="st2" d="M630,143.7h20l-7.3,7.3H610l7.3-7.3H630z"/>
<path class="st4" d="M642.7,151v32.7H610V151H642.7z"/>
<path class="st3" d="M650,71.1v32.7l-7.3,7.2V78.3L650,71.1z"/>
<path class="st2" d="M650,71.1l-7.3,7.2H610l7.3-7.2H650z"/>
<path class="st4" d="M642.7,78.3V111H610V78.3H642.7z"/>
<path class="st2" d="M579.2,71.1l-7.3,7.2h-32.7l7.3-7.2H579.2z"/>
<path class="st3" d="M579.2,91v12.8l-7.3,7.2V78.3l7.3-7.2V91z"/>
<path class="st2" d="M559.2,143.7h20l-7.3,7.3h-32.7l7.3-7.3H559.2z"/>
<path class="st3" d="M579.2,163.7v12.7l-7.3,7.3V151l7.3-7.3V163.7z"/>
<rect x="539.2" y="151" class="st4" width="32.7" height="32.7"/>
<path class="st4" d="M571.9,78.3V111h-32.7V78.3H571.9z"/>
<path class="st5" d="M559.2,140.1c-4,0-7.3-3.3-7.3-7.3v-7.3c0-4,3.3-7.3,7.3-7.3c4,0,7.3,3.3,7.3,7.3c0,0,0,0,0,0v7.3
	C566.4,136.8,563.2,140,559.2,140.1z M559.2,121.9c-2,0-3.6,1.6-3.6,3.6c0,0,0,0,0,0v7.3c0,2,1.6,3.6,3.6,3.6c2,0,3.6-1.6,3.6-3.6
	v-7.3C562.8,123.5,561.2,121.9,559.2,121.9C559.2,121.9,559.2,121.9,559.2,121.9L559.2,121.9z"/>
<path class="st5" d="M597.3,171H590c-4,0-7.3-3.3-7.3-7.3c0-4,3.3-7.3,7.3-7.3h7.3c4,0,7.3,3.3,7.3,7.3
	C604.6,167.7,601.3,171,597.3,171z M590.1,160.1c-2,0-3.6,1.6-3.6,3.6s1.6,3.6,3.6,3.6h7.3c2,0,3.6-1.6,3.6-3.6s-1.6-3.6-3.6-3.6
	H590.1z"/>
<path class="st5" d="M597.3,98.3H590c-4,0-7.3-3.3-7.3-7.3c0-4,3.3-7.3,7.3-7.3h7.3c4,0,7.3,3.3,7.3,7.3
	C604.6,95,601.3,98.3,597.3,98.3z M590.1,87.4c-2,0-3.6,1.6-3.6,3.6s1.6,3.6,3.6,3.6h7.3c2,0,3.6-1.6,3.6-3.6s-1.6-3.6-3.6-3.6
	H590.1z"/>
<path class="st5" d="M630,140.1c-4,0-7.3-3.3-7.3-7.3v-7.3c0-4,3.3-7.3,7.3-7.3c4,0,7.3,3.3,7.3,7.3v7.3
	C637.3,136.8,634,140.1,630,140.1z M630,121.9c-2,0-3.6,1.6-3.6,3.6c0,0,0,0,0,0v7.3c0,2,1.6,3.6,3.6,3.6c2,0,3.6-1.6,3.6-3.6
	c0,0,0,0,0,0v-7.3c0-1.9-1.5-3.6-3.4-3.6C630.1,121.9,630.1,121.9,630,121.9L630,121.9z"/>
<path class="st6" d="M588.2,165.5h-10.9c-1,0-1.8-0.8-1.8-1.8c0-1,0.8-1.8,1.8-1.8h10.9c1,0,1.8,0.8,1.8,1.8
	C590,164.7,589.2,165.5,588.2,165.5L588.2,165.5z"/>
<path class="st6" d="M559.2,147.3c-1,0-1.8-0.8-1.8-1.8c0,0,0,0,0,0v-10.9c0-1,0.8-1.8,1.8-1.8c1,0,1.8,0.8,1.8,1.8v10.9
	C561,146.5,560.2,147.3,559.2,147.3C559.2,147.3,559.2,147.3,559.2,147.3z"/>
<path class="st6" d="M588.2,92.8h-10.9c-1,0-1.8-0.8-1.8-1.8c0-1,0.8-1.8,1.8-1.8h10.9c1,0,1.8,0.8,1.8,1.8c0,0,0,0,0,0
	c0,1-0.7,1.8-1.7,1.8C588.3,92.8,588.2,92.8,588.2,92.8z"/>
<path class="st6" d="M630,147.3c-1,0-1.8-0.8-1.8-1.8c0,0,0,0,0,0v-10.9c0-1,0.8-1.8,1.8-1.8c1,0,1.8,0.8,1.8,1.8v10.9
	C631.8,146.5,631,147.3,630,147.3C630,147.3,630,147.3,630,147.3z"/>
<path class="st6" d="M610,89.2h-10.9c-1,0-1.8,0.8-1.8,1.8c0,1,0.8,1.8,1.8,1.8H610V89.2z"/>
<path class="st6" d="M557.4,111v12.7c0,1,0.8,1.8,1.8,1.8c1,0,1.8-0.8,1.8-1.8V111H557.4z"/>
<path class="st6" d="M610,161.9h-10.9c-1,0-1.8,0.8-1.8,1.8c0,1,0.8,1.8,1.8,1.8H610V161.9z"/>
<path class="st6" d="M628.2,111v12.7c0,1,0.8,1.8,1.8,1.8c1,0,1.8-0.8,1.8-1.8V111H628.2z"/>
<path class="st7" d="M440.7,151.1v19.8c0,8.9-31.5,16.1-70.3,16.1s-70.3-7.2-70.3-16.1v-19.8H440.7z"/>
<path class="st8" d="M432.2,151.1v27.5c5.4-2.3,8.5-4.9,8.5-7.7v-19.8H432.2z"/>
<path class="st5" d="M330.2,132.1l-5-2.5c-0.6-0.3-0.8-1-0.5-1.6c0,0,0,0,0,0l23.5-48.2l7.1,3.5l-23.5,48.2
	C331.5,132.1,330.8,132.4,330.2,132.1C330.2,132.1,330.2,132.1,330.2,132.1z"/>
<path class="st9" d="M348.8,75.5c0,0-14.4-5.8-23-3.9c-0.2,0-0.3,0.2-0.2,0.4c0,0.1,0.1,0.2,0.2,0.2c2.9,1.2,13.8,5.5,20.3,9
	L348.8,75.5z"/>
<path class="st10" d="M357.9,80.6c0,0,13.4,6.5,17.5,15.9c0.1,0.2,0,0.3-0.2,0.4c-0.1,0-0.2,0-0.2,0c-2.7-1.6-13.1-7.6-19.8-10.6
	L357.9,80.6z"/>
<path class="st4" d="M354,88.7l-9.1-4.5c-0.5-0.3-0.8-0.9-0.5-1.5l3.8-7.8c0.3-0.5,0.9-0.8,1.5-0.5l9.1,4.5c0.5,0.3,0.8,0.9,0.5,1.5
	l-3.8,7.8C355.2,88.7,354.6,88.9,354,88.7z"/>
<path class="st11" d="M440.7,151.1c0,3.9-5.9,7.4-15.7,10.2c-12.9,3.6-32.5,6-54.6,6c-38.8,0-70.3-7.2-70.3-16.1
	s31.5-16.1,70.3-16.1c22,0,41.7,2.3,54.6,6C434.8,143.7,440.7,147.3,440.7,151.1z"/>
<path class="st7" d="M440.7,151.1c0,3.9-5.9,7.4-15.7,10.2c5.9-2.5,9.7-4.8,9.7-10.2s-4.5-8.2-9.7-10.2
	C434.8,143.7,440.7,147.3,440.7,151.1z"/>
<path class="st2" d="M370.4,158.8c-14.4,0.1-28.8-1.1-43-3.5c-5.1-0.9-10.2-2.3-15.1-4.1c4.9-1.9,9.9-3.3,15.1-4.1
	c12-2.3,27.3-3.5,43-3.5c14.4-0.1,28.8,1.1,43,3.5c5.1,0.9,10.2,2.3,15.1,4.1c-4.9,1.9-9.9,3.3-15.1,4.1
	C399.2,157.7,384.8,158.9,370.4,158.8z"/>
<path class="st5" d="M411.1,150.3l5-2.5c0.6-0.3,0.8-1,0.5-1.6c0,0,0,0,0,0l-23.1-47.4l-7.1,3.5l23.1,47.4
	C409.8,150.3,410.5,150.6,411.1,150.3C411.1,150.3,411.1,150.3,411.1,150.3z"/>
<path class="st10" d="M391.8,93.9c0,0,15.1-6.2,23.7-4.2c0.2,0,0.3,0.2,0.2,0.4c0,0.1-0.1,0.2-0.2,0.2c-2.9,1.2-14.5,5.9-20.9,9.4
	L391.8,93.9z"/>
<path class="st9" d="M383.7,98.2c0,0-13.8,6.9-17.9,16.3c-0.1,0.2,0,0.3,0.2,0.4c0.1,0,0.2,0,0.2,0c2.7-1.6,13.5-8,20.2-11
	L383.7,98.2z"/>
<path class="st4" d="M396.9,100.7c0.2,0.6,0,1.2-0.5,1.5l-5.6,2.8l-3.5,1.7c-0.6,0.2-1.2,0-1.5-0.5l-3.8-7.8c-0.2-0.6,0-1.2,0.5-1.5
	l3.5-1.7l5.7-2.8c0.6-0.2,1.2,0,1.5,0.5L396.9,100.7z"/>
<circle class="st2" cx="169.5" cy="66.7" r="31"/>
<path class="st12" d="M169.6,80.1L169.6,80.1z"/>
<path class="st12" d="M194.4,85c-10.1,13.8-29.4,16.8-43.3,6.7c-2.6-1.9-4.9-4.2-6.7-6.7c4.4-4.7,10.4-7.2,15.3-8.5
	c-0.2,2.8,0.4,5.6,1.5,8.2c1.9-4.3,8.2-4.7,8.2-4.7s6.3,0.3,8.2,4.7c0,0.1,1.9-4.6,1.5-8.2C184.1,77.9,190,80.3,194.4,85z"/>
<path class="st13" d="M177.1,73.3L177.1,73.3c0,0.6-0.4,4-7.5,6.7h-0.4c-7.1-2.7-7.5-6.1-7.5-6.7l0,0c0-1.3,0.3-2.6,0.9-3.7
	c2,2.2,4.3,3.7,6.8,3.7s4.9-1.4,6.8-3.7C176.8,70.7,177.1,72,177.1,73.3z"/>
<path class="st3" d="M173.7,81.2l-1.6,3.1h-5.4l-1.6-3.1c1.4-0.6,2.8-0.9,4.3-1.1C170.9,80.3,172.3,80.6,173.7,81.2z"/>
<path class="st2" d="M165.1,97.5c1.5,0.2,2.9,0.3,4.4,0.3c1.5,0,2.9-0.1,4.4-0.3l-1.7-13.1h-5.4L165.1,97.5z"/>
<path class="st14" d="M177.1,73.2c0,0,0.3,3.9-7.7,6.9c0,0,6.3,0.3,8.2,4.7C177.7,85,181.3,75.5,177.1,73.2z"/>
<path class="st14" d="M161.7,73.2c-4.2,2.3-0.5,11.7-0.4,11.6c1.9-4.3,8.2-4.7,8.2-4.7C161.3,77.1,161.7,73.2,161.7,73.2z"/>
<path class="st15" d="M176.6,70.6c-2.1,2.2-4.5,3.6-7.2,3.6c-2.8-0.1-5.4-1.4-7.2-3.6c0.1-0.3,0.2-0.7,0.4-1c2,2.2,4.3,3.7,6.8,3.7
	s4.9-1.4,6.8-3.7C176.4,69.9,176.5,70.2,176.6,70.6z"/>
<path class="st13" d="M182.8,63.1c-1,1.7-2.6,2.7-3.8,2.5c-2.3,4.4-5.8,7.6-9.6,7.6s-7.2-3.3-9.6-7.6c-1.2,0.1-2.7-0.8-3.8-2.5
	c-1.2-2-1.3-4.2-0.1-4.9c0.3-0.1,0.6-0.2,0.9-0.2c0.5,1.2,1.1,2.2,1.9,3.2c-1.1-6.2,3.5-6.9,2.7-12.9c0,0,2.9,6.4,11.1,1.9l-0.6,1.2
	c11.5-2.6,7.7,11,7.6,11.3c1.2-1.4,2-3,2.6-4.8c0.2,0,0.4,0.1,0.6,0.2C184,58.8,184,61.1,182.8,63.1z"/>
<path class="st16" d="M176.1,41.9c0.8,0.1,1.7,0.3,2.4,0.7c-4.2-4.7-10.9-1.7-10.9-1.7c1.2-1.1,2.8-1.8,4.4-1.8
	c-9.7-1.5-11.4,4.4-11.4,4.4c-0.3-0.7-0.4-1.4-0.4-2.2c-0.7,1.2,0,3.5,0,3.5c-0.7-1.7-3.1-1.4-3.1-1.4c2.1,0.3,2.4,1.6,2.4,1.6
	c-5.1,1.9-4.3,7.2-4.3,7.2l1.2-1.5c-0.8,3.6,0,7.4,2.3,10.3c-1.1-6.2,3.5-6.9,2.7-12.9c0,0,2.9,6.4,11.1,1.9l-0.6,1.2
	c11.7-2.6,7.6,11.4,7.6,11.4c2.5-3,3.7-6.8,3.5-10.7l0.5,2C184.9,45.3,176.1,41.9,176.1,41.9z"/>
<circle class="st2" cx="169.5" cy="207.9" r="31"/>
<path class="st12" d="M169.6,221.2L169.6,221.2z"/>
<path class="st12" d="M194.4,226.2c-10.1,13.8-29.4,16.8-43.3,6.7c-2.6-1.9-4.9-4.2-6.7-6.7c4.4-4.7,10.4-7.2,15.3-8.5
	c-0.2,2.8,0.4,5.6,1.5,8.2c1.9-4.3,8.2-4.7,8.2-4.7s6.3,0.3,8.2,4.7c0,0.1,1.9-4.6,1.5-8.2C184.1,219,190,221.5,194.4,226.2z"/>
<path class="st13" d="M177.1,214.5L177.1,214.5c0,0.6-0.4,4-7.5,6.7h-0.4c-7.1-2.7-7.5-6.1-7.5-6.7l0,0c0-1.3,0.3-2.6,0.9-3.7
	c2,2.2,4.3,3.7,6.8,3.7s4.9-1.4,6.8-3.7C176.8,211.9,177.1,213.2,177.1,214.5z"/>
<path class="st3" d="M173.7,222.4l-1.6,3.1h-5.4l-1.6-3.1c1.4-0.6,2.8-0.9,4.3-1.1C170.9,221.4,172.3,221.8,173.7,222.4z"/>
<path class="st2" d="M165.1,238.6c1.5,0.2,2.9,0.3,4.4,0.3c1.5,0,2.9-0.1,4.4-0.3l-1.7-13.1h-5.4L165.1,238.6z"/>
<path class="st14" d="M177.1,214.4c0,0,0.3,3.9-7.7,6.9c0,0,6.3,0.3,8.2,4.7C177.7,226.2,181.3,216.7,177.1,214.4z"/>
<path class="st14" d="M161.7,214.4c-4.2,2.3-0.5,11.7-0.4,11.6c1.9-4.3,8.2-4.7,8.2-4.7C161.3,218.3,161.7,214.4,161.7,214.4z"/>
<path class="st15" d="M176.6,211.7c-2.1,2.2-4.5,3.6-7.2,3.6c-2.8-0.1-5.4-1.4-7.2-3.6c0.1-0.3,0.2-0.7,0.4-1c2,2.2,4.3,3.7,6.8,3.7
	s4.9-1.4,6.8-3.7C176.4,211,176.5,211.4,176.6,211.7z"/>
<path class="st13" d="M182.8,204.3c-1,1.7-2.6,2.7-3.8,2.5c-2.3,4.4-5.8,7.6-9.6,7.6s-7.2-3.3-9.6-7.6c-1.2,0.1-2.7-0.8-3.8-2.5
	c-1.2-2-1.3-4.2-0.1-4.9c0.3-0.1,0.6-0.2,0.9-0.2c0.5,1.2,1.1,2.2,1.9,3.2c-1.1-6.2,3.5-6.9,2.7-12.9c0,0,2.9,6.4,11.1,1.9l-0.6,1.2
	c11.5-2.6,7.7,11,7.6,11.3c1.2-1.4,2-3,2.6-4.8c0.2,0,0.4,0.1,0.6,0.2C184,200,184,202.3,182.8,204.3z"/>
<path class="st16" d="M176.1,183.1c0.8,0.1,1.7,0.3,2.4,0.7c-4.2-4.7-10.9-1.7-10.9-1.7c1.2-1.1,2.8-1.8,4.4-1.8
	c-9.7-1.5-11.4,4.4-11.4,4.4c-0.3-0.7-0.4-1.4-0.4-2.2c-0.7,1.2,0,3.5,0,3.5c-0.7-1.7-3.1-1.4-3.1-1.4c2.1,0.3,2.4,1.6,2.4,1.6
	c-5.1,1.9-4.3,7.2-4.3,7.2l1.2-1.5c-0.8,3.6,0,7.4,2.3,10.3c-1.1-6.2,3.5-6.9,2.7-12.9c0,0,2.9,6.4,11.1,1.9l-0.6,1.2
	c11.7-2.6,7.6,11.4,7.6,11.4c2.5-3,3.7-6.8,3.5-10.7l0.5,2C184.9,186.4,176.1,183.1,176.1,183.1z"/>
<circle class="st2" cx="107.4" cy="137.9" r="31"/>
<path class="st12" d="M107.5,151.3L107.5,151.3z"/>
<path class="st12" d="M132.4,156.3c-10.1,13.8-29.4,16.8-43.3,6.7c-2.6-1.9-4.9-4.2-6.7-6.7c4.4-4.7,10.4-7.2,15.3-8.5
	c-0.2,2.8,0.4,5.6,1.5,8.2c1.9-4.3,8.2-4.7,8.2-4.7s6.3,0.3,8.2,4.7c0,0.1,1.9-4.6,1.5-8.2C122,149.1,128,151.6,132.4,156.3z"/>
<path class="st13" d="M115.1,144.5L115.1,144.5c0,0.6-0.4,4-7.5,6.7h-0.4c-7.1-2.7-7.5-6.1-7.5-6.7l0,0c0-1.3,0.3-2.6,0.9-3.7
	c2,2.2,4.3,3.7,6.8,3.7s4.9-1.4,6.8-3.7C114.7,142,115,143.2,115.1,144.5z"/>
<path class="st3" d="M111.6,152.4l-1.6,3.1h-5.4l-1.6-3.1c1.4-0.6,2.8-0.9,4.3-1.1C108.8,151.5,110.2,151.8,111.6,152.4z"/>
<path class="st2" d="M103,168.7c1.5,0.2,2.9,0.3,4.4,0.3c1.5,0,2.9-0.1,4.4-0.3l-1.7-13.1h-5.4L103,168.7z"/>
<path class="st14" d="M115.1,144.5c0,0,0.3,3.9-7.7,6.9c0,0,6.3,0.3,8.2,4.7C115.6,156.2,119.3,146.7,115.1,144.5z"/>
<path class="st14" d="M99.6,144.5c-4.2,2.3-0.5,11.7-0.4,11.6c1.9-4.3,8.2-4.7,8.2-4.7C99.3,148.4,99.6,144.5,99.6,144.5z"/>
<path class="st15" d="M114.6,141.8c-2.1,2.2-4.5,3.6-7.2,3.6c-2.8-0.1-5.4-1.4-7.2-3.6c0.1-0.3,0.2-0.7,0.4-1c2,2.2,4.3,3.7,6.8,3.7
	s4.9-1.4,6.8-3.7C114.3,141.1,114.5,141.5,114.6,141.8z"/>
<path class="st13" d="M120.7,134.3c-1,1.7-2.6,2.7-3.8,2.5c-2.3,4.4-5.8,7.6-9.6,7.6s-7.2-3.3-9.6-7.6c-1.2,0.1-2.7-0.8-3.8-2.5
	c-1.2-2-1.3-4.2-0.1-4.9c0.3-0.1,0.6-0.2,0.9-0.2c0.5,1.2,1.1,2.2,1.9,3.2c-1.1-6.2,3.5-6.9,2.7-12.9c0,0,2.9,6.4,11.1,1.9l-0.6,1.2
	c11.5-2.6,7.7,11,7.6,11.3c1.2-1.4,2-3,2.6-4.8c0.2,0,0.4,0.1,0.6,0.2C121.9,130.1,121.9,132.3,120.7,134.3z"/>
<path class="st16" d="M114,113.1c0.8,0.1,1.7,0.3,2.4,0.7c-4.2-4.7-10.9-1.7-10.9-1.7c1.2-1.1,2.8-1.8,4.4-1.8
	c-9.7-1.5-11.4,4.4-11.4,4.4c-0.3-0.7-0.4-1.4-0.4-2.2c-0.7,1.2,0,3.5,0,3.5c-0.7-1.7-3.1-1.4-3.1-1.4c2.1,0.3,2.4,1.6,2.4,1.6
	c-5.1,1.9-4.3,7.2-4.3,7.2l1.2-1.5c-0.8,3.6,0,7.4,2.3,10.3c-1.1-6.2,3.5-6.9,2.7-12.9c0,0,2.9,6.4,11.1,1.9l-0.6,1.2
	c11.7-2.6,7.6,11.4,7.6,11.4c2.5-3,3.7-6.8,3.5-10.7l0.5,2C122.8,116.5,114,113.1,114,113.1z"/>
<g class="st17">
	<path d="M155.8,141c0,1.3,0.5,2.1,1.7,2.1c1.2,0,1.7-0.8,1.7-2.1v-11.1h1.5v11.1c0,2.2-1,3.7-3.3,3.7c-2.2,0-3.2-1.5-3.2-3.7v-11.1
		h1.6V141z"/>
	<path d="M168.7,133.4v0.4h-1.5v-0.5c0-1.3-0.5-2.1-1.7-2.1s-1.7,0.8-1.7,2.1c0,3.3,4.9,3.6,4.9,7.7c0,2.2-1.1,3.6-3.3,3.6
		s-3.3-1.4-3.3-3.6v-0.8h1.5v0.9c0,1.3,0.5,2.1,1.7,2.1s1.7-0.8,1.7-2.1c0-3.2-4.9-3.6-4.9-7.7c0-2.2,1-3.6,3.2-3.6
		C167.6,129.7,168.7,131.2,168.7,133.4z"/>
	<path d="M175.3,136.3v1.5h-3.6v5.2h4.4v1.5h-6v-14.6h6v1.5h-4.4v5H175.3z"/>
	<path d="M180.8,129.9c2.3,0,3.2,1.2,3.2,3.3v1.2c0,1.6-0.6,2.6-1.8,3c1.3,0.4,1.8,1.5,1.8,3v2.3c0,0.6,0,1.2,0.3,1.7h-1.6
		c-0.2-0.4-0.3-0.8-0.3-1.8v-2.3c0-1.6-0.8-2.2-2.1-2.2h-1.1v6.2h-1.6v-14.6H180.8z M180.4,136.7c1.3,0,2.1-0.4,2.1-2v-1.4
		c0-1.3-0.5-2-1.7-2h-1.6v5.4H180.4z"/>
	<path d="M192.1,133.4v0.4h-1.5v-0.5c0-1.3-0.5-2.1-1.7-2.1s-1.7,0.8-1.7,2.1c0,3.3,4.9,3.6,4.9,7.7c0,2.2-1.1,3.6-3.3,3.6
		s-3.3-1.4-3.3-3.6v-0.8h1.5v0.9c0,1.3,0.5,2.1,1.7,2.1s1.7-0.8,1.7-2.1c0-3.2-4.9-3.6-4.9-7.7c0-2.2,1-3.6,3.2-3.6
		C191,129.7,192.1,131.2,192.1,133.4z"/>
</g>
<g class="st17">
	<path d="M5.1,76.1l-0.6,2.9H3l2.8-14.6h2.4L11,79.1H9.3l-0.6-2.9H5.1z M5.3,74.7h3.2l-1.6-8.4L5.3,74.7z"/>
	<path d="M18.5,68v0.4H17v-0.5c0-1.3-0.5-2.1-1.7-2.1s-1.7,0.8-1.7,2.1c0,3.3,4.9,3.6,4.9,7.7c0,2.2-1.1,3.6-3.3,3.6
		S12,77.8,12,75.6v-0.8h1.5v0.9c0,1.3,0.5,2.1,1.7,2.1s1.7-0.8,1.7-2.1c0-3.2-4.9-3.6-4.9-7.7c0-2.2,1-3.6,3.2-3.6
		C17.5,64.4,18.5,65.8,18.5,68z"/>
	<path d="M21.6,64.5v14.6H20V64.5H21.6z"/>
	<path d="M29.7,68v1.3h-1.5v-1.4c0-1.3-0.5-2.1-1.7-2.1c-1.2,0-1.7,0.8-1.7,2.1v7.7c0,1.3,0.5,2.1,1.7,2.1c1.2,0,1.7-0.8,1.7-2.1
		v-1.9h1.5v1.8c0,2.2-1,3.7-3.3,3.7c-2.2,0-3.3-1.5-3.3-3.7V68c0-2.2,1-3.7,3.3-3.7C28.7,64.4,29.7,65.8,29.7,68z"/>
</g>
<path class="st2" d="M6,88.9c-1.4,0-2.6,1.2-2.6,2.6c0,1.4,1.2,2.6,2.6,2.6c1.4,0,2.6-1.2,2.6-2.6C8.6,90.1,7.4,88.9,6,88.9z
	 M6,92.8c-0.8,0-1.4-0.6-1.4-1.4C4.6,90.6,5.2,90,6,90c0.8,0,1.4,0.6,1.4,1.4l0,0C7.4,92.2,6.8,92.8,6,92.8C6,92.8,6,92.8,6,92.8z"
	/>
<path class="st2" d="M28.9,90.6c0,0.3-0.3,0.6-0.6,0.6c-0.3,0-0.6-0.3-0.6-0.6c0-0.3,0.3-0.6,0.6-0.6c0.3,0,0.6,0.2,0.6,0.4
	C28.9,90.5,28.9,90.6,28.9,90.6z"/>
<path class="st2" d="M26.7,90.6c0,0.3-0.3,0.6-0.6,0.6c-0.3,0-0.6-0.3-0.6-0.6c0-0.3,0.3-0.6,0.6-0.6C26.4,90,26.7,90.2,26.7,90.6
	C26.7,90.6,26.7,90.6,26.7,90.6z"/>
<path class="st2" d="M30.1,92.3c0,0.3-0.3,0.6-0.6,0.6c-0.3,0-0.6-0.3-0.6-0.6c0-0.3,0.3-0.6,0.6-0.6C29.8,91.7,30.1,91.9,30.1,92.3
	C30.1,92.3,30.1,92.3,30.1,92.3z"/>
<path class="st2" d="M27.8,92.3c0,0.3-0.3,0.6-0.6,0.6c-0.3,0-0.6-0.3-0.6-0.6c0-0.3,0.3-0.6,0.6-0.6c0.3,0,0.6,0.2,0.6,0.4
	C27.8,92.2,27.8,92.3,27.8,92.3z"/>
<path class="st2" d="M24.4,90.6c0,0.3-0.3,0.6-0.6,0.6c-0.3,0-0.6-0.3-0.6-0.6c0-0.3,0.3-0.6,0.6-0.6C24.1,90,24.4,90.2,24.4,90.6
	C24.4,90.6,24.4,90.6,24.4,90.6z"/>
<path class="st2" d="M25.5,92.3c0,0.3-0.3,0.6-0.6,0.6c-0.3,0-0.6-0.3-0.6-0.6c0-0.3,0.3-0.6,0.6-0.6c0.3,0,0.6,0.2,0.6,0.4
	C25.5,92.2,25.5,92.3,25.5,92.3z"/>
<path class="st2" d="M22.1,90.6c0,0.3-0.3,0.6-0.6,0.6c-0.3,0-0.6-0.3-0.6-0.6c0-0.3,0.3-0.6,0.6-0.6c0.3,0,0.6,0.2,0.6,0.4
	C22.1,90.5,22.1,90.6,22.1,90.6z"/>
<path class="st2" d="M23.3,92.3c0,0.3-0.3,0.6-0.6,0.6c-0.3,0-0.6-0.3-0.6-0.6c0-0.3,0.3-0.6,0.6-0.6C23,91.7,23.3,91.9,23.3,92.3
	C23.3,92.3,23.3,92.3,23.3,92.3z"/>
<path class="st2" d="M19.9,90.6c0,0.3-0.3,0.6-0.6,0.6c-0.3,0-0.6-0.3-0.6-0.6c0-0.3,0.3-0.6,0.6-0.6C19.6,90,19.9,90.2,19.9,90.6
	C19.9,90.6,19.9,90.6,19.9,90.6z"/>
<path class="st2" d="M21,92.3c0,0.3-0.3,0.6-0.6,0.6c-0.3,0-0.6-0.3-0.6-0.6c0-0.3,0.3-0.6,0.6-0.6C20.7,91.7,21,91.9,21,92.3
	C21,92.3,21,92.3,21,92.3z"/>
<path class="st2" d="M34,94.8v-6.7c0-1.4-1.2-2.6-2.6-2.6H2.6c-1.4,0-2.6,1.2-2.6,2.6v6.7c0,0.8,0.4,1.5,1,2c-0.6,0.5-1,1.2-1,2v6.7
	c0,0.8,0.4,1.5,1,2c-0.6,0.5-1,1.2-1,2v6.7c0,1.4,1.2,2.6,2.6,2.6h28.8c1.4,0,2.6-1.2,2.6-2.6v-6.7c0-0.8-0.4-1.5-1-2
	c0.6-0.5,1-1.2,1-2v-6.7c0-0.8-0.4-1.5-1-2C33.6,96.3,34,95.6,34,94.8z M32.9,109.6v6.7c0,0.8-0.7,1.5-1.5,1.5H2.6
	c-0.8,0-1.5-0.7-1.5-1.5v-6.7c0-0.8,0.7-1.5,1.5-1.5h28.8C32.2,108.1,32.9,108.8,32.9,109.6z M32.9,98.8v6.7c0,0.8-0.7,1.5-1.5,1.5
	H2.6c-0.8,0-1.5-0.7-1.5-1.5v-6.7c0-0.8,0.7-1.5,1.5-1.5h28.8C32.2,97.4,32.8,98,32.9,98.8z M2.6,96.2c-0.8,0-1.5-0.7-1.5-1.5V88
	c0-0.8,0.7-1.5,1.5-1.5h28.8c0.8,0,1.5,0.7,1.5,1.5v6.7c0,0.8-0.7,1.5-1.5,1.5H2.6z"/>
<path class="st2" d="M6,104.7c1.4,0,2.6-1.2,2.6-2.6c0-1.4-1.2-2.6-2.6-2.6c-1.4,0-2.6,1.2-2.6,2.6C3.4,103.5,4.5,104.7,6,104.7
	C6,104.7,6,104.7,6,104.7z M6,100.8c0.8,0,1.4,0.6,1.4,1.4c0,0.8-0.6,1.4-1.4,1.4c-0.8,0-1.4-0.6-1.4-1.4l0,0
	c-0.1-0.7,0.5-1.3,1.2-1.4C5.9,100.8,5.9,100.8,6,100.8z"/>
<path class="st2" d="M28.9,101.3c0,0.3-0.3,0.6-0.6,0.6c-0.3,0-0.6-0.3-0.6-0.6c0-0.3,0.3-0.6,0.6-0.6
	C28.7,100.8,28.9,101,28.9,101.3z"/>
<path class="st2" d="M26.7,101.3c0,0.3-0.3,0.6-0.6,0.6c-0.3,0-0.6-0.3-0.6-0.6c0-0.3,0.3-0.6,0.6-0.6
	C26.4,100.8,26.7,101,26.7,101.3z"/>
<path class="st2" d="M30.1,103c0,0.3-0.3,0.6-0.6,0.6c-0.3,0-0.6-0.3-0.6-0.6c0-0.3,0.3-0.6,0.6-0.6C29.8,102.5,30.1,102.7,30.1,103
	z"/>
<path class="st2" d="M27.8,103c0,0.3-0.3,0.6-0.6,0.6c-0.3,0-0.6-0.3-0.6-0.6c0-0.3,0.3-0.6,0.6-0.6C27.6,102.5,27.8,102.7,27.8,103
	z"/>
<path class="st2" d="M24.4,101.3c0,0.3-0.3,0.6-0.6,0.6c-0.3,0-0.6-0.3-0.6-0.6c0-0.3,0.3-0.6,0.6-0.6
	C24.1,100.8,24.4,101,24.4,101.3z"/>
<path class="st2" d="M25.5,103c0,0.3-0.3,0.6-0.6,0.6c-0.3,0-0.6-0.3-0.6-0.6c0-0.3,0.3-0.6,0.6-0.6C25.3,102.5,25.5,102.7,25.5,103
	z"/>
<path class="st2" d="M22.1,101.3c0,0.3-0.3,0.6-0.6,0.6c-0.3,0-0.6-0.3-0.6-0.6c0-0.3,0.3-0.6,0.6-0.6
	C21.9,100.8,22.1,101,22.1,101.3z"/>
<path class="st2" d="M23.3,103c0,0.3-0.3,0.6-0.6,0.6c-0.3,0-0.6-0.3-0.6-0.6c0-0.3,0.3-0.6,0.6-0.6C23,102.5,23.3,102.7,23.3,103z"
	/>
<path class="st2" d="M19.9,101.3c0,0.3-0.3,0.6-0.6,0.6c-0.3,0-0.6-0.3-0.6-0.6c0-0.3,0.3-0.6,0.6-0.6
	C19.6,100.8,19.9,101,19.9,101.3z"/>
<path class="st2" d="M21,103c0,0.3-0.3,0.6-0.6,0.6c-0.3,0-0.6-0.3-0.6-0.6c0-0.3,0.3-0.6,0.6-0.6C20.7,102.5,21,102.7,21,103z"/>
<path class="st2" d="M6,115.5c1.4,0,2.6-1.2,2.6-2.6c0-1.4-1.2-2.6-2.6-2.6c-1.4,0-2.6,1.2-2.6,2.6C3.4,114.3,4.5,115.5,6,115.5
	C6,115.5,6,115.5,6,115.5z M6,111.5c0.8,0,1.4,0.6,1.4,1.4c0,0.8-0.6,1.4-1.4,1.4c-0.8,0-1.4-0.6-1.4-1.4l0,0
	C4.6,112.1,5.2,111.5,6,111.5C6,111.5,6,111.5,6,111.5z"/>
<path class="st2" d="M28.9,112.1c0,0.3-0.3,0.6-0.6,0.6c-0.3,0-0.6-0.3-0.6-0.6c0-0.3,0.3-0.6,0.6-0.6
	C28.6,111.5,28.9,111.7,28.9,112.1C28.9,112.1,28.9,112.1,28.9,112.1z"/>
<path class="st2" d="M26.7,112.1c0,0.3-0.3,0.6-0.6,0.6c-0.3,0-0.6-0.3-0.6-0.6c0-0.3,0.3-0.6,0.6-0.6
	C26.4,111.5,26.7,111.8,26.7,112.1z"/>
<path class="st2" d="M30.1,113.8c0,0.3-0.3,0.6-0.6,0.6c-0.3,0-0.6-0.3-0.6-0.6c0-0.3,0.3-0.6,0.6-0.6
	C29.8,113.2,30.1,113.5,30.1,113.8z"/>
<path class="st2" d="M27.8,113.8c0,0.3-0.3,0.6-0.6,0.6c-0.3,0-0.6-0.3-0.6-0.6c0-0.3,0.3-0.6,0.6-0.6
	C27.5,113.2,27.8,113.4,27.8,113.8C27.8,113.8,27.8,113.8,27.8,113.8z"/>
<path class="st2" d="M24.4,112.1c0,0.3-0.3,0.6-0.6,0.6c-0.3,0-0.6-0.3-0.6-0.6c0-0.3,0.3-0.6,0.6-0.6
	C24.1,111.5,24.4,111.8,24.4,112.1z"/>
<path class="st2" d="M25.5,113.8c0,0.3-0.3,0.6-0.6,0.6c-0.3,0-0.6-0.3-0.6-0.6c0-0.3,0.3-0.6,0.6-0.6
	C25.2,113.2,25.5,113.4,25.5,113.8C25.5,113.8,25.5,113.8,25.5,113.8z"/>
<path class="st2" d="M22.1,112.1c0,0.3-0.3,0.6-0.6,0.6c-0.3,0-0.6-0.3-0.6-0.6c0-0.3,0.3-0.6,0.6-0.6
	C21.8,111.5,22.1,111.7,22.1,112.1C22.1,112.1,22.1,112.1,22.1,112.1z"/>
<path class="st2" d="M23.3,113.8c0,0.3-0.3,0.6-0.6,0.6c-0.3,0-0.6-0.3-0.6-0.6c0-0.3,0.3-0.6,0.6-0.6
	C23,113.2,23.3,113.5,23.3,113.8z"/>
<path class="st2" d="M19.9,112.1c0,0.3-0.3,0.6-0.6,0.6c-0.3,0-0.6-0.3-0.6-0.6c0-0.3,0.3-0.6,0.6-0.6
	C19.6,111.5,19.9,111.8,19.9,112.1z"/>
<path class="st2" d="M21,113.8c0,0.3-0.3,0.6-0.6,0.6c-0.3,0-0.6-0.3-0.6-0.6c0-0.3,0.3-0.6,0.6-0.6C20.7,113.2,21,113.5,21,113.8z"
	/>
<g class="st17">
	<path d="M4.4,212.4l-0.6,2.9H2.3l2.8-14.6h2.4l2.8,14.6H8.6l-0.6-2.9H4.4z M4.6,211h3.2l-1.6-8.4L4.6,211z"/>
	<path d="M17.8,204.3v0.4h-1.5v-0.5c0-1.3-0.5-2.1-1.7-2.1s-1.7,0.8-1.7,2.1c0,3.3,4.9,3.6,4.9,7.7c0,2.2-1.1,3.6-3.3,3.6
		s-3.3-1.4-3.3-3.6V211h1.5v0.9c0,1.3,0.5,2.1,1.7,2.1s1.7-0.8,1.7-2.1c0-3.2-4.9-3.6-4.9-7.7c0-2.2,1-3.6,3.2-3.6
		C16.8,200.6,17.8,202.1,17.8,204.3z"/>
	<path d="M20.9,200.8v14.6h-1.6v-14.6H20.9z"/>
	<path d="M29,204.3v1.3h-1.5v-1.4c0-1.3-0.5-2.1-1.7-2.1c-1.2,0-1.7,0.8-1.7,2.1v7.7c0,1.3,0.5,2.1,1.7,2.1c1.2,0,1.7-0.8,1.7-2.1
		V210H29v1.8c0,2.2-1,3.7-3.3,3.7c-2.2,0-3.3-1.5-3.3-3.7v-7.5c0-2.2,1-3.7,3.3-3.7C28,200.6,29,202.1,29,204.3z"/>
</g>
<path class="st2" d="M6,166c-1.4,0-2.6,1.2-2.6,2.6c0,1.4,1.2,2.6,2.6,2.6c1.4,0,2.6-1.2,2.6-2.6C8.6,167.2,7.4,166,6,166z M6,169.9
	c-0.8,0-1.4-0.6-1.4-1.4c0-0.8,0.6-1.4,1.4-1.4c0.8,0,1.4,0.6,1.4,1.4l0,0C7.4,169.3,6.8,169.9,6,169.9C6,169.9,6,169.9,6,169.9z"/>
<path class="st2" d="M28.9,167.7c0,0.3-0.3,0.6-0.6,0.6c-0.3,0-0.6-0.3-0.6-0.6c0-0.3,0.3-0.6,0.6-0.6
	C28.6,167.1,28.9,167.3,28.9,167.7C28.9,167.7,28.9,167.7,28.9,167.7z"/>
<path class="st2" d="M26.7,167.7c0,0.3-0.3,0.6-0.6,0.6c-0.3,0-0.6-0.3-0.6-0.6c0-0.3,0.3-0.6,0.6-0.6
	C26.4,167.1,26.7,167.4,26.7,167.7z"/>
<path class="st2" d="M30.1,169.4c0,0.3-0.3,0.6-0.6,0.6c-0.3,0-0.6-0.3-0.6-0.6c0-0.3,0.3-0.6,0.6-0.6
	C29.8,168.8,30.1,169.1,30.1,169.4z"/>
<path class="st2" d="M27.8,169.4c0,0.3-0.3,0.6-0.6,0.6c-0.3,0-0.6-0.3-0.6-0.6c0-0.3,0.3-0.6,0.6-0.6
	C27.5,168.8,27.8,169,27.8,169.4C27.8,169.4,27.8,169.4,27.8,169.4z"/>
<path class="st2" d="M24.4,167.7c0,0.3-0.3,0.6-0.6,0.6c-0.3,0-0.6-0.3-0.6-0.6c0-0.3,0.3-0.6,0.6-0.6
	C24.1,167.1,24.4,167.4,24.4,167.7z"/>
<path class="st2" d="M25.5,169.4c0,0.3-0.3,0.6-0.6,0.6c-0.3,0-0.6-0.3-0.6-0.6c0-0.3,0.3-0.6,0.6-0.6
	C25.2,168.8,25.5,169,25.5,169.4C25.5,169.4,25.5,169.4,25.5,169.4z"/>
<path class="st2" d="M22.1,167.7c0,0.3-0.3,0.6-0.6,0.6c-0.3,0-0.6-0.3-0.6-0.6c0-0.3,0.3-0.6,0.6-0.6
	C21.8,167.1,22.1,167.3,22.1,167.7C22.1,167.7,22.1,167.7,22.1,167.7z"/>
<path class="st2" d="M23.3,169.4c0,0.3-0.3,0.6-0.6,0.6c-0.3,0-0.6-0.3-0.6-0.6c0-0.3,0.3-0.6,0.6-0.6
	C23,168.8,23.3,169.1,23.3,169.4z"/>
<path class="st2" d="M19.9,167.7c0,0.3-0.3,0.6-0.6,0.6c-0.3,0-0.6-0.3-0.6-0.6c0-0.3,0.3-0.6,0.6-0.6
	C19.6,167.1,19.9,167.4,19.9,167.7z"/>
<path class="st2" d="M21,169.4c0,0.3-0.3,0.6-0.6,0.6c-0.3,0-0.6-0.3-0.6-0.6c0-0.3,0.3-0.6,0.6-0.6C20.7,168.8,21,169.1,21,169.4z"
	/>
<path class="st2" d="M34,171.9v-6.7c0-1.4-1.2-2.6-2.6-2.6H2.6c-1.4,0-2.6,1.2-2.6,2.6v6.7c0,0.8,0.4,1.5,1,2c-0.6,0.5-1,1.2-1,2
	v6.7c0,0.8,0.4,1.5,1,2c-0.6,0.5-1,1.2-1,2v6.7c0,1.4,1.2,2.6,2.6,2.6h28.8c1.4,0,2.6-1.2,2.6-2.6v-6.7c0-0.8-0.4-1.5-1-2
	c0.6-0.5,1-1.2,1-2v-6.7c0-0.8-0.4-1.5-1-2C33.6,173.4,34,172.7,34,171.9z M32.9,186.7v6.7c0,0.8-0.7,1.5-1.5,1.5H2.6
	c-0.8,0-1.5-0.7-1.5-1.5v-6.7c0-0.8,0.7-1.5,1.5-1.5h28.8C32.2,185.2,32.9,185.9,32.9,186.7z M32.9,176v6.7c0,0.8-0.7,1.5-1.5,1.5
	H2.6c-0.8,0-1.5-0.7-1.5-1.5V176c0-0.8,0.7-1.5,1.5-1.5h28.8C32.2,174.5,32.9,175.1,32.9,176C32.9,176,32.9,176,32.9,176z
	 M2.6,173.3c-0.8,0-1.5-0.7-1.5-1.5v-6.7c0-0.8,0.7-1.5,1.5-1.5h28.8c0.8,0,1.5,0.7,1.5,1.5v6.7c0,0.8-0.7,1.5-1.5,1.5L2.6,173.3z"
	/>
<path class="st2" d="M6,181.8c1.4,0,2.6-1.2,2.6-2.6c0-1.4-1.2-2.6-2.6-2.6c-1.4,0-2.6,1.2-2.6,2.6C3.4,180.6,4.5,181.8,6,181.8
	C6,181.8,6,181.8,6,181.8z M6,177.9c0.8,0,1.4,0.6,1.4,1.4c0,0.8-0.6,1.4-1.4,1.4c-0.8,0-1.4-0.6-1.4-1.4l0,0
	c-0.1-0.7,0.5-1.3,1.2-1.4C5.9,177.9,5.9,177.9,6,177.9z"/>
<path class="st2" d="M28.9,178.4c0,0.3-0.3,0.6-0.6,0.6c-0.3,0-0.6-0.3-0.6-0.6c0-0.3,0.3-0.6,0.6-0.6
	C28.7,177.9,28.9,178.1,28.9,178.4z"/>
<path class="st2" d="M26.7,178.4c0,0.3-0.3,0.6-0.6,0.6c-0.3,0-0.6-0.3-0.6-0.6c0-0.3,0.3-0.6,0.6-0.6
	C26.4,177.9,26.7,178.1,26.7,178.4z"/>
<path class="st2" d="M30.1,180.1c0,0.3-0.3,0.6-0.6,0.6c-0.3,0-0.6-0.3-0.6-0.6c0-0.3,0.3-0.6,0.6-0.6
	C29.8,179.6,30.1,179.8,30.1,180.1z"/>
<path class="st2" d="M27.8,180.1c0,0.3-0.3,0.6-0.6,0.6c-0.3,0-0.6-0.3-0.6-0.6c0-0.3,0.3-0.6,0.6-0.6
	C27.6,179.6,27.8,179.8,27.8,180.1z"/>
<path class="st2" d="M24.4,178.4c0,0.3-0.3,0.6-0.6,0.6c-0.3,0-0.6-0.3-0.6-0.6c0-0.3,0.3-0.6,0.6-0.6
	C24.1,177.9,24.4,178.1,24.4,178.4z"/>
<path class="st2" d="M25.5,180.1c0,0.3-0.3,0.6-0.6,0.6c-0.3,0-0.6-0.3-0.6-0.6c0-0.3,0.3-0.6,0.6-0.6
	C25.3,179.6,25.5,179.8,25.5,180.1z"/>
<path class="st2" d="M22.1,178.4c0,0.3-0.3,0.6-0.6,0.6c-0.3,0-0.6-0.3-0.6-0.6c0-0.3,0.3-0.6,0.6-0.6
	C21.9,177.9,22.1,178.1,22.1,178.4z"/>
<path class="st2" d="M23.3,180.1c0,0.3-0.3,0.6-0.6,0.6c-0.3,0-0.6-0.3-0.6-0.6c0-0.3,0.3-0.6,0.6-0.6
	C23,179.6,23.3,179.8,23.3,180.1z"/>
<path class="st2" d="M19.9,178.4c0,0.3-0.3,0.6-0.6,0.6c-0.3,0-0.6-0.3-0.6-0.6c0-0.3,0.3-0.6,0.6-0.6
	C19.6,177.9,19.9,178.1,19.9,178.4z"/>
<path class="st2" d="M21,180.1c0,0.3-0.3,0.6-0.6,0.6c-0.3,0-0.6-0.3-0.6-0.6c0-0.3,0.3-0.6,0.6-0.6C20.7,179.6,21,179.8,21,180.1z"
	/>
<path class="st2" d="M6,192.6c1.4,0,2.6-1.2,2.6-2.6c0-1.4-1.2-2.6-2.6-2.6c-1.4,0-2.6,1.2-2.6,2.6C3.4,191.4,4.5,192.6,6,192.6
	C6,192.6,6,192.6,6,192.6z M6,188.7c0.8,0,1.4,0.6,1.4,1.4c0,0.8-0.6,1.4-1.4,1.4c-0.8,0-1.4-0.6-1.4-1.4l0,0
	c-0.1-0.7,0.5-1.3,1.2-1.4C5.9,188.7,5.9,188.7,6,188.7z"/>
<path class="st2" d="M28.9,189.2c0,0.3-0.3,0.6-0.6,0.6c-0.3,0-0.6-0.3-0.6-0.6c0-0.3,0.3-0.6,0.6-0.6
	C28.7,188.7,28.9,188.9,28.9,189.2z"/>
<path class="st2" d="M26.7,189.2c0,0.3-0.3,0.6-0.6,0.6c-0.3,0-0.6-0.3-0.6-0.6c0-0.3,0.3-0.6,0.6-0.6
	C26.4,188.7,26.7,188.9,26.7,189.2z"/>
<path class="st2" d="M30.1,190.9c0,0.3-0.3,0.6-0.6,0.6c-0.3,0-0.6-0.3-0.6-0.6c0-0.3,0.3-0.6,0.6-0.6
	C29.8,190.4,30.1,190.6,30.1,190.9z"/>
<path class="st2" d="M27.8,190.9c0,0.3-0.3,0.6-0.6,0.6c-0.3,0-0.6-0.3-0.6-0.6c0-0.3,0.3-0.6,0.6-0.6
	C27.6,190.4,27.8,190.6,27.8,190.9z"/>
<path class="st2" d="M24.4,189.2c0,0.3-0.3,0.6-0.6,0.6c-0.3,0-0.6-0.3-0.6-0.6c0-0.3,0.3-0.6,0.6-0.6
	C24.1,188.7,24.4,188.9,24.4,189.2z"/>
<path class="st2" d="M25.5,190.9c0,0.3-0.3,0.6-0.6,0.6c-0.3,0-0.6-0.3-0.6-0.6c0-0.3,0.3-0.6,0.6-0.6
	C25.3,190.4,25.5,190.6,25.5,190.9z"/>
<path class="st2" d="M22.1,189.2c0,0.3-0.3,0.6-0.6,0.6c-0.3,0-0.6-0.3-0.6-0.6c0-0.3,0.3-0.6,0.6-0.6
	C21.9,188.7,22.1,188.9,22.1,189.2z"/>
<path class="st2" d="M23.3,190.9c0,0.3-0.3,0.6-0.6,0.6c-0.3,0-0.6-0.3-0.6-0.6c0-0.3,0.3-0.6,0.6-0.6
	C23,190.4,23.3,190.6,23.3,190.9z"/>
<path class="st2" d="M19.9,189.2c0,0.3-0.3,0.6-0.6,0.6c-0.3,0-0.6-0.3-0.6-0.6c0-0.3,0.3-0.6,0.6-0.6
	C19.6,188.7,19.9,188.9,19.9,189.2z"/>
<path class="st2" d="M21,190.9c0,0.3-0.3,0.6-0.6,0.6c-0.3,0-0.6-0.3-0.6-0.6c0-0.3,0.3-0.6,0.6-0.6C20.7,190.4,21,190.6,21,190.9z"
	/>
</svg>
